<?xml version="1.0" encoding="UTF-8" standalone="no"?>
<!-- Created with Inkscape (http://www.inkscape.org/) -->

<svg
   width="600mm"
   height="124.882mm"
   viewBox="0 0 600 124.88202"
   version="1.1"
   id="svg1"
   xml:space="preserve"
   inkscape:version="1.4.2 (ebf0e940d0, 2025-05-08)"
   sodipodi:docname="AmbiCreatorLogo.svg"
   xmlns:inkscape="http://www.inkscape.org/namespaces/inkscape"
   xmlns:sodipodi="http://sodipodi.sourceforge.net/DTD/sodipodi-0.dtd"
   xmlns="http://www.w3.org/2000/svg"
   xmlns:svg="http://www.w3.org/2000/svg"><sodipodi:namedview
     id="namedview1"
     pagecolor="#ffffff"
     bordercolor="#000000"
     borderopacity="0.25"
     inkscape:showpageshadow="2"
     inkscape:pageopacity="0.0"
     inkscape:pagecheckerboard="0"
     inkscape:deskcolor="#d1d1d1"
     inkscape:document-units="mm"
     showguides="false"
     inkscape:zoom="0.48125676"
     inkscape:cx="859.20871"
     inkscape:cy="440.51329"
     inkscape:window-width="1920"
     inkscape:window-height="1043"
     inkscape:window-x="0"
     inkscape:window-y="0"
     inkscape:window-maximized="1"
     inkscape:current-layer="layer1"
     inkscape:clip-to-page="false"><inkscape:page
       x="0"
       y="0"
       width="600"
       height="124.88202"
       id="page2"
       margin="0"
       bleed="0" /></sodipodi:namedview><defs
     id="defs1"><rect
       x="1362.4158"
       y="994.13031"
       width="228.67404"
       height="142.01862"
       id="rect3" /><rect
       x="628.25183"
       y="849.70459"
       width="1307.0527"
       height="194.9747"
       id="rect1" /><clipPath
       clipPathUnits="userSpaceOnUse"
       id="clipPath16"><rect
         style="fill:#000000;fill-opacity:0.48368;stroke-width:0.254876"
         id="rect16"
         width="482.61295"
         height="55.726761"
         x="261.25665"
         y="739.85071" /></clipPath><clipPath
       clipPathUnits="userSpaceOnUse"
       id="clipPath17"><rect
         style="fill:#000000;fill-opacity:0.48368;stroke-width:0.228454"
         id="rect17"
         width="152.35992"
         height="141.81793"
         x="106.74928"
         y="566.47717"
         mask="none" /></clipPath><clipPath
       clipPathUnits="userSpaceOnUse"
       id="clipPath17-8"><rect
         style="fill:#000000;fill-opacity:0.48368;stroke-width:0.228454"
         id="rect17-3"
         width="152.35992"
         height="141.81793"
         x="106.74928"
         y="566.47717"
         mask="none" /></clipPath><clipPath
       clipPathUnits="userSpaceOnUse"
       id="clipPath16-7"><rect
         style="fill:#000000;fill-opacity:0.48368;stroke-width:0.254876"
         id="rect16-6"
         width="482.61295"
         height="55.726761"
         x="261.25665"
         y="739.85071" /></clipPath><clipPath
       clipPathUnits="userSpaceOnUse"
       id="clipPath16-7-1-4"><rect
         style="fill:#000000;fill-opacity:0.48368;stroke-width:0.254876"
         id="rect16-6-1-6"
         width="482.61295"
         height="55.726761"
         x="261.25665"
         y="739.85071" /></clipPath><clipPath
       clipPathUnits="userSpaceOnUse"
       id="clipPath17-8-4-9"><rect
         style="fill:#000000;fill-opacity:0.48368;stroke-width:0.228454"
         id="rect17-3-4-5"
         width="152.35992"
         height="141.81793"
         x="106.74928"
         y="566.47717"
         mask="none" /></clipPath></defs><g
     inkscape:label="Ebene 1"
     inkscape:groupmode="layer"
     id="layer1"
     transform="translate(-136.86254,-99.133549)"><g
       id="g1"
       transform="matrix(0.97072643,0,0,0.97072643,4.1606152,3.1678525)"><path
         id="path15-85-3"
         clip-path="none"
         style="fill:#ffffff"
         transform="translate(16.968591,-474.23984)"
         d="m 186.43675,573.1405 c -1.99394,-0.0712 -3.9858,-0.049 -5.96975,0.0655 -13.22628,0.76354 -26.0937,5.62861 -36.78684,14.26214 -2.76754,2.23449 -7.8572,7.36287 -9.98047,10.05659 -4.90687,6.22519 -9.12093,14.37846 -11.28045,21.82467 -1.60879,5.54723 -2.56807,11.98064 -2.24598,15.06225 0.11658,1.11536 0.0759,1.59332 -0.13575,1.59332 -0.17627,0 -0.30237,0.44117 -0.30237,1.05831 0,0.58209 0.0959,1.05831 0.21294,1.05831 0.11708,0 0.22589,1.57736 0.24169,3.50551 0.0952,11.59387 5.30496,25.33571 13.56689,35.78497 2.38619,3.01793 6.83943,7.50293 9.9235,9.99483 10.17521,8.22148 23.01534,13.33811 35.5864,14.18016 16.33649,1.09427 31.29744,-3.39371 44.31744,-13.2938 2.8465,-2.16438 8.22103,-7.42528 10.57563,-10.35204 13.8116,-17.16781 17.9688,-39.80132 11.1282,-60.58972 -6.3709,-19.36088 -21.65758,-34.6471 -41.01848,-41.01795 -5.8514,-1.92546 -11.85078,-2.97953 -17.8326,-3.19303 z m 530.58864,17.28055 c -2.02302,0.0512 -4.02195,0.25192 -5.28515,0.58452 -9.196,2.42127 -14.41971,9.28199 -14.41971,18.93775 0,6.0405 1.67623,10.33563 5.53003,14.17057 3.0741,3.05907 6.33316,4.7301 10.82956,5.55239 0.6794,0.12394 2.8426,0.18167 4.8071,0.12777 4.182,-0.11472 6.38438,-0.64534 9.64988,-2.32423 2.813,-1.44628 6.22759,-4.80282 7.60139,-7.47257 1.7823,-3.46388 2.10349,-4.99268 2.11449,-10.05393 0.009,-4.13303 -0.0459,-4.66947 -0.67555,-6.61442 -2.1184,-6.54365 -7.54965,-11.1905 -14.72155,-12.59429 -1.3603,-0.26626 -3.40746,-0.36471 -5.43049,-0.31356 z m -347.94854,0.0346 c -2.90223,-0.0327 -5.84863,0.51819 -8.12363,1.60396 -4.5046,2.14985 -6.81431,6.08341 -6.43981,10.96743 0.3946,5.14555 3.1299,7.77698 10.623,10.22002 3.4708,1.1316 5.55812,2.24393 6.21942,3.31387 1.0883,1.76096 0.39413,4.29586 -1.43627,5.24576 -2.8377,1.47264 -8.70601,0.33706 -12.25891,-2.37215 l -0.86134,-0.65638 -0.23849,0.60954 c -0.1314,0.33529 -0.7891,1.91481 -1.4613,3.50977 -0.6722,1.59497 -1.17088,3.03266 -1.10888,3.19515 0.2812,0.73288 6.18919,3.00124 9.26499,3.55715 1.7829,0.32223 6.55442,0.11835 8.27322,-0.35348 3.7776,-1.03702 6.89449,-3.4388 8.27109,-6.37274 0.9002,-1.91868 1.10835,-2.9706 1.10835,-5.60615 0,-2.4289 -0.51147,-4.05221 -1.81637,-5.7648 -1.4072,-1.84672 -3.44098,-3.14113 -6.94448,-4.42115 -6.3649,-2.32542 -7.05888,-2.62704 -7.77708,-3.37669 -1.505,-1.57088 -1.01989,-4.0993 1.00241,-5.22499 2.1646,-1.20487 5.25685,-0.95817 8.24075,0.65798 l 1.34791,0.73038 1.43734,-3.42619 c 0.7905,-1.88453 1.47438,-3.52114 1.52038,-3.637 0.1313,-0.33316 -1.29323,-0.96699 -3.82013,-1.69926 -1.55501,-0.45062 -3.28083,-0.68041 -5.02217,-0.70003 z m 212.24131,0.56961 c -3.2846,0 -4.40689,0.35454 -5.04719,1.59278 -0.239,0.46212 -3.80354,8.86515 -7.92134,18.67371 l -7.48694,17.83366 h 4.95297 4.95296 l 4.53827,-12.36911 c 4.2537,-11.59331 5.00119,-13.29539 5.84039,-13.29539 0.7448,0 1.5424,1.84288 5.6727,13.10694 l 4.55584,12.42554 5.07008,0.0719 5.07008,0.0713 -1.34258,-3.24679 c -7.8114,-18.89153 -13.74281,-33.0663 -14.02471,-33.5177 -0.6352,-1.01725 -1.81663,-1.34684 -4.83053,-1.34684 z m -285.78146,0.13255 c -3.4308,0 -3.56796,0.0218 -4.20396,0.66171 -0.4203,0.42293 -3.33991,7.05398 -8.09701,18.38837 -4.0921,9.7499 -7.54759,17.99759 -7.67859,18.32821 l -0.23849,0.60102 4.95403,-0.0719 4.95403,-0.0719 4.56914,-12.43565 c 4.1327,-11.24746 4.93588,-13.09683 5.68548,-13.09683 0.8118,0 1.70892,2.05514 5.86382,13.42741 l 4.47065,12.23709 h 5.00567 c 4.6484,0 4.99455,-0.0331 4.85395,-0.46314 -0.0833,-0.25466 -3.51399,-8.54739 -7.62429,-18.42883 -6.169,-14.8307 -7.60385,-18.06312 -8.22105,-18.52092 -0.6717,-0.49829 -1.10728,-0.55471 -4.29338,-0.55471 z m 121.58989,0.0852 v 18.80892 18.80945 h 4.36578 4.36579 v -7.42146 -7.42093 l 1.65241,0.0788 1.65241,0.0788 3.96972,7.33416 3.97025,7.33416 5.22553,0.008 c 2.874,0.005 5.22553,-0.0361 5.22553,-0.09 0,-0.0539 -2.09406,-3.52386 -4.65326,-7.71106 -2.5593,-4.18721 -4.7059,-7.75109 -4.7709,-7.91974 -0.0669,-0.17421 0.52403,-0.57216 1.36813,-0.92203 3.5676,-1.4787 5.93489,-4.90086 6.14969,-8.88968 0.2721,-5.0526 -1.84087,-8.56086 -6.35517,-10.5522 -2.6394,-1.16429 -3.64975,-1.27262 -13.10375,-1.40168 z m 115.54667,0.0463 0.19325,12.3031 c 0.1062,6.76672 0.094,12.29958 -0.0277,12.29458 -0.1218,-0.005 -3.61476,-5.54024 -7.76216,-12.3015 l -7.54071,-12.29352 -5.09298,-0.001 -5.0935,-0.001 v 18.7855 l 0.001,18.78444 4.29925,5.3e-4 h 4.29977 l -0.0793,-12.36006 c -0.0433,-6.79791 0.0161,-12.26513 0.13149,-12.14978 0.1153,0.11535 3.55475,5.64741 7.64345,12.29352 l 7.43371,12.08376 5.20104,0.0719 5.20158,0.0713 v -18.79083 -18.79082 h -4.40412 z m -215.5589,5.3e-4 v 13.04147 c 0,14.32389 0.0243,14.59083 1.63058,17.89115 1.6955,3.48374 5.58047,6.33595 9.88837,7.2591 7.8633,1.68504 15.91478,-1.41856 18.84458,-7.26389 1.6248,-3.24095 1.65082,-3.52702 1.65082,-17.88636 v -13.04147 h -4.34716 -4.34715 l -0.10434,12.36964 c -0.0711,8.42351 -0.20244,12.66759 -0.41204,13.30445 -1.0648,3.23595 -3.43214,4.89643 -6.92904,4.86033 -3.2846,-0.0339 -4.99868,-1.17095 -6.42598,-4.26251 -0.574,-1.24379 -0.58696,-1.51134 -0.66596,-13.77024 l -0.0799,-12.50167 h -4.35142 z m 65.35211,0 v 3.83664 3.83663 h 5.29154 5.29154 v 14.94887 14.94886 h 4.49834 4.49781 v -14.94886 -14.94887 h 5.29154 5.29154 v -3.83663 -3.83664 h -15.08089 z m 69.32077,0 v 18.7855 18.7855 h 4.49781 4.4978 v -18.7855 -18.7855 h -4.4978 z m 151.33643,0 0.0101,12.76624 c 0.005,14.26671 0.0786,15.04052 1.71948,18.16319 2.0027,3.81127 5.4132,6.29183 10.0502,7.30967 2.14367,0.46948 6.20014,0.46776 8.46167,-0.006 2.446,-0.5118 5.75077,-2.17176 7.47257,-3.75305 1.6219,-1.48953 3.02853,-3.75116 3.83663,-6.16885 0.5539,-1.65697 0.5787,-2.20574 0.6697,-15.01541 l 0.0937,-13.29539 h -4.501 -4.50154 l -0.0799,12.63421 c -0.0773,12.17344 -0.10019,12.67731 -0.63349,13.82455 -1.3038,2.80477 -3.20639,4.03474 -6.29289,4.06874 -1.0367,0.0114 -2.35119,-0.14111 -2.92099,-0.33911 -1.5699,-0.54549 -3.22081,-2.21652 -3.84941,-3.89679 -0.514,-1.37405 -0.53874,-2.0133 -0.53874,-13.86607 v -12.42553 h -4.49781 z m 38.63463,0 v 18.8036 18.8036 l 9.32621,-0.099 c 10.6433,-0.11328 11.51056,-0.24531 15.94116,-2.4275 6.9998,-3.44764 10.60609,-10.45328 9.69459,-18.83235 -1.0138,-9.31903 -6.85046,-14.64717 -17.49296,-15.96937 -1.2331,-0.1532 -5.66786,-0.27896 -9.85536,-0.27896 z m 40.74539,0 v 18.7855 18.7855 h 4.49834 4.49781 v -18.7855 -18.7855 h -4.49781 z m -197.7162,0.0564 c -3.0488,-0.0665 -3.60198,-0.0127 -4.29658,0.42056 -0.7066,0.44077 -1.66115,2.55622 -8.40045,18.61355 -4.18058,9.96061 -7.60136,18.19246 -7.60353,18.29787 v 5.3e-4 c 0.002,0.10027 2.1741,0.17974 4.82893,0.17674 l 4.8284,-0.005 4.47332,-12.23176 c 2.4601,-6.72747 4.58825,-12.38099 4.72885,-12.56289 0.1407,-0.1819 0.59539,-0.33058 1.01039,-0.33058 0.5581,0 0.84946,0.18958 1.12006,0.72772 0.2012,0.40019 2.31295,6.05562 4.69265,12.56767 l 4.32639,11.83995 h 5.00035 c 3.8965,0 4.9696,-0.0728 4.863,-0.33059 -9.3613,-22.6235 -15.09757,-36.13111 -15.52487,-36.559 -0.4902,-0.49081 -0.91681,-0.55668 -4.04691,-0.62498 z m -322.70087,2.1262 c 1.49874,0.0643 2.92671,0.26151 4.23004,0.59783 3.12245,0.80572 5.15035,2.07274 8.00864,5.0046 l 2.59893,2.66653 6.52871,0.0809 c 3.59085,0.0448 6.89316,0.0139 7.33842,-0.0687 0.54905,-0.10181 1.57119,-0.89478 3.17546,-2.46424 2.59918,-2.54278 4.78594,-3.86482 7.92134,-4.789 9.0496,-2.66742 19.33116,-0.0413 26.67596,6.81405 7.1476,6.6712 12.23354,18.40592 13.42954,30.98585 1.7167,18.05561 -6.4875,37.8605 -20.6583,49.86824 -8.2034,6.95119 -17.72833,11.21754 -28.34114,12.69437 -7.70452,1.07212 -16.17895,0.60105 -23.81992,-1.32448 -19.61376,-4.94268 -35.20218,-20.45491 -40.9333,-40.73261 -5.13259,-18.15995 -0.78343,-38.26654 10.79442,-49.90178 3.03694,-3.052 5.78855,-5.04496 9.12178,-6.60697 4.30167,-2.01583 9.43321,-3.01752 13.92942,-2.82464 z m 263.77154,4.8827 3.711,0.14693 c 3.1833,0.12602 3.88754,0.23536 4.94764,0.76711 1.709,0.85728 2.30241,1.75491 2.30241,3.48156 0,1.87294 -0.69673,3.01624 -2.36203,3.87389 -1.1778,0.60657 -1.66677,0.68195 -4.95297,0.76445 l -3.64605,0.0916 v -4.56276 z m 291.83533,0.21081 c 2.5684,0 2.90781,0.0627 4.49781,0.82727 2.2936,1.10295 3.69952,2.3771 4.70702,4.2673 3.4437,6.46113 1.31231,14.28098 -4.65379,17.07453 -2.2975,1.0758 -5.6495,1.27553 -8.064,0.48018 -4.207,-1.38573 -6.96162,-5.31282 -7.26602,-10.3579 -0.3198,-5.30151 1.90969,-9.40603 6.21729,-11.44655 1.6533,-0.78325 1.98629,-0.84483 4.56169,-0.84483 z m -67.20415,0.39713 h 3.1861 c 7.0652,0 10.96779,1.83096 12.90039,6.05226 0.9096,1.98689 1.14051,6.27596 0.46581,8.65226 -0.9198,3.23938 -3.34324,5.65991 -6.78584,6.77679 -1.3041,0.42308 -2.63049,0.58027 -5.73179,0.67927 l -4.03467,0.12883 v -11.1447 z M 184.2142,609.0181 c -7.14541,-10e-4 -7.58083,0.076 -8.59689,1.51666 -1.0345,1.46675 -29.95309,56.44321 -29.95309,56.94314 0,0.28329 0.20848,0.63636 0.46314,0.78468 0.28714,0.16725 3.63852,0.27289 8.8226,0.27789 7.74751,0.007 8.39134,-0.0274 8.79439,-0.47273 0.45784,-0.50591 8.88879,-17.52899 14.24191,-28.75584 1.82199,-3.82117 3.47852,-6.94126 3.92234,-7.38846 0.63009,-0.63488 0.99885,-0.77763 2.05061,-0.79373 0.81211,-0.0124 1.54615,0.15269 2.00162,0.4509 0.84631,0.55411 3.33417,5.44247 12.08111,23.73846 3.23506,6.76672 6.1217,12.51158 6.4148,12.76624 0.4834,0.42012 1.31327,0.46314 8.94877,0.46314 4.6287,0 8.60411,-0.0725 8.83431,-0.16077 0.2301,-0.0883 0.41843,-0.46083 0.41843,-0.8278 0,-0.36697 -3.49918,-7.28974 -7.77548,-15.38379 -4.2764,-8.09405 -10.77786,-20.43145 -14.44846,-27.41646 -3.67052,-6.985 -6.96347,-13.15072 -7.31712,-13.7021 -1.27215,-1.9834 -1.51056,-2.03843 -8.90299,-2.03943 z" /><path
         style="font-weight:bold;font-size:48.6582px;font-family:'DIN Alternate';-inkscape-font-specification:'DIN Alternate Bold';fill:#ffffff;stroke-width:0.253"
         d="m 302.62844,225.75682 -2.6762,-8.17458 h -12.26187 l -2.6762,8.17458 h -8.0286 l 12.2132,-34.88793 h 9.14774 l 12.31053,34.88793 z m -6.81215,-21.94485 q -0.19463,-0.72987 -0.63256,-2.18962 -0.38926,-1.45974 -0.77853,-2.96815 -0.38927,-1.55706 -0.63256,-2.53022 -0.19463,1.11914 -0.58389,2.57888 -0.34061,1.45975 -0.68122,2.82218 -0.34061,1.36243 -0.5839,2.28693 l -2.48157,7.54202 h 8.80714 z m 49.58268,-5.10911 q 4.57387,0 6.90946,2.28694 2.3356,2.28693 2.3356,7.4447 v 17.32232 h -7.29873 v -15.47331 q 0,-3.06546 -1.02183,-4.37923 -1.02182,-1.36243 -3.06546,-1.36243 -2.82218,0 -3.98998,2.04364 -1.16779,2.04364 -1.16779,5.88764 v 13.28369 h -7.34739 v -15.47331 q 0,-1.99498 -0.43792,-3.2601 -0.43793,-1.26511 -1.31378,-1.84901 -0.87584,-0.63255 -2.23827,-0.63255 -1.99499,0 -3.16279,1.02182 -1.11913,1.02182 -1.60572,2.96815 -0.43792,1.94633 -0.43792,4.7685 v 12.4565 h -7.34739 v -26.56738 h 5.64435 l 1.07048,3.40608 h 0.24329 q 0.77854,-1.21646 1.89767,-2.0923 1.1678,-0.87585 2.6762,-1.31378 1.50841,-0.48658 3.35742,-0.48658 2.96815,0 4.91448,1.02182 1.99498,1.02183 3.11412,2.96815 h 0.24329 q 1.31378,-1.99498 3.40608,-2.96815 2.0923,-1.02182 4.62253,-1.02182 z m 23.59924,-1.31377 q 0,1.5084 -0.0973,2.87083 -0.0487,1.36243 -0.19463,2.38426 h 0.29195 q 1.07048,-1.65438 2.87083,-2.77352 1.80035,-1.1678 4.67119,-1.1678 4.42789,0 7.20141,3.50339 2.77352,3.45473 2.77352,10.21822 0,4.52522 -1.26511,7.63934 -1.26512,3.06547 -3.60071,4.62253 -2.28694,1.55706 -5.30375,1.55706 -2.91949,0 -4.62252,-1.02182 -1.65438,-1.07048 -2.72486,-2.33559 h -0.48659 l -1.21645,2.87083 h -5.64435 v -36.98023 h 7.34739 z m 5.15777,7.15276 q -1.84902,0 -3.01681,0.77853 -1.11914,0.77853 -1.65438,2.38425 -0.48658,1.55706 -0.48658,4.08729 v 0.87585 q 0,3.74668 1.11914,5.693 1.16779,1.94633 4.13594,1.94633 2.38425,0 3.60071,-2.04364 1.21645,-2.04365 1.21645,-5.9363 0,-3.844 -1.21645,-5.79033 -1.1678,-1.99498 -3.69802,-1.99498 z m 25.64287,-5.35241 v 26.56738 h -7.34739 v -26.56738 z m -3.64937,-10.46151 q 1.60572,0 2.77352,0.77853 1.21646,0.72988 1.21646,2.82218 0,1.99498 -1.21646,2.77352 -1.1678,0.77853 -2.77352,0.77853 -1.65438,0 -2.82217,-0.77853 -1.1678,-0.77854 -1.1678,-2.77352 0,-2.0923 1.1678,-2.82218 1.16779,-0.77853 2.82217,-0.77853 z m 26.61603,7.97995 q -2.09231,0 -3.79534,0.82719 -1.65438,0.77853 -2.82218,2.33559 -1.16779,1.5084 -1.80035,3.69802 -0.5839,2.14096 -0.5839,4.91448 0,3.64936 1.02182,6.27691 1.02182,2.57888 3.06547,3.94131 2.0923,1.36243 5.20643,1.36243 2.28693,0 4.37923,-0.53524 2.14096,-0.53524 4.28193,-1.36243 v 6.32557 q -2.18962,0.9245 -4.47656,1.31377 -2.23828,0.43792 -5.01179,0.43792 -5.54704,0 -9.14774,-2.18962 -3.55205,-2.23827 -5.30375,-6.2769 -1.70304,-4.03863 -1.70304,-9.34238 0,-3.94131 1.07049,-7.20141 1.11913,-3.30876 3.26009,-5.69301 2.14097,-2.38425 5.25509,-3.69802 3.11412,-1.31378 7.20141,-1.31378 2.57889,0 5.20643,0.5839 2.6762,0.53524 5.06045,1.70304 l -2.43291,5.9363 q -1.75169,-0.82719 -3.74668,-1.41109 -1.94633,-0.63255 -4.1846,-0.63255 z m 30.11944,1.99498 q 0.72987,0 1.55706,0.0973 0.87585,0.0487 1.36243,0.19463 l -0.72987,6.86081 q -0.53524,-0.0973 -1.26512,-0.19464 -0.72987,-0.0973 -1.75169,-0.0973 -1.11914,0 -2.28694,0.34061 -1.11914,0.3406 -2.0923,1.11913 -0.97316,0.77854 -1.55706,2.04365 -0.5839,1.26511 -0.5839,3.21144 v 13.47832 h -7.34739 v -26.56738 h 5.59569 l 1.07048,4.47656 h 0.34061 q 0.77853,-1.41109 1.94633,-2.53023 1.1678,-1.11914 2.62754,-1.75169 1.45975,-0.68122 3.11413,-0.68122 z m 17.41964,0 q 3.69802,0 6.37422,1.41109 2.6762,1.36243 4.08729,4.08729 1.45974,2.6762 1.45974,6.56886 v 3.55204 h -17.07902 q 0.0973,3.01681 1.84901,4.76851 1.75169,1.70303 5.01179,1.70303 2.48157,0 4.52521,-0.48658 2.04365,-0.48658 4.18461,-1.45974 v 5.49837 q -1.94633,0.97317 -4.13595,1.41109 -2.14096,0.48658 -5.3524,0.48658 -3.94131,0 -7.00678,-1.45974 -3.01681,-1.45975 -4.7685,-4.47656 -1.7517,-3.06546 -1.7517,-7.63933 0,-4.67119 1.55706,-7.73666 1.60572,-3.11412 4.4279,-4.67119 2.87083,-1.55706 6.61752,-1.55706 z m 0.19463,5.20643 q -2.18962,0 -3.55205,1.41109 -1.36243,1.36243 -1.60572,4.08729 h 10.02359 q 0,-1.60572 -0.53524,-2.82218 -0.53524,-1.21645 -1.65438,-1.94633 -1.07048,-0.72987 -2.6762,-0.72987 z m 29.38956,-5.20643 q 5.01179,0 7.63933,2.38425 2.62755,2.3356 2.62755,6.95813 v 17.71158 h -5.10912 l -1.41108,-3.60071 h -0.19464 q -1.11913,1.41109 -2.33559,2.3356 -1.1678,0.9245 -2.72486,1.31377 -1.55706,0.43792 -3.79534,0.43792 -2.33559,0 -4.1846,-0.87584 -1.84901,-0.92451 -2.9195,-2.77352 -1.07048,-1.84901 -1.07048,-4.67119 0,-4.1846 3.01681,-6.27691 3.01681,-2.0923 9.00177,-2.33559 l 4.4279,-0.14598 v -0.82718 q 0,-2.38426 -1.07048,-3.30876 -1.07048,-0.97317 -3.01681,-0.97317 -1.80036,0 -3.69803,0.5839 -1.89767,0.5839 -3.74668,1.41109 l -2.14096,-5.01179 q 2.0923,-1.07048 4.76851,-1.70304 2.72485,-0.63256 5.9363,-0.63256 z m 0.19463,14.88941 q -3.45473,0.0973 -4.81716,1.11914 -1.36243,1.02182 -1.36243,2.87083 0,1.70304 0.9245,2.53023 0.97317,0.77853 2.53023,0.77853 2.33559,0 3.89266,-1.36243 1.60572,-1.36243 1.60572,-3.89265 v -2.18962 z m 28.51374,6.86081 q 1.21646,0 2.3356,-0.24329 1.11914,-0.2433 2.23827,-0.5839 v 5.40106 q -1.16779,0.48658 -2.91949,0.82719 -1.70303,0.38926 -3.74668,0.38926 -2.38425,0 -4.28192,-0.77853 -1.84901,-0.77853 -2.96815,-2.6762 -1.07048,-1.94633 -1.07048,-5.3524 v -12.79711 h -3.45473 v -3.06546 l 3.98997,-2.43291 2.0923,-5.5957 h 4.62253 v 5.64435 h 7.4447 v 5.44972 h -7.4447 v 12.79711 q 0,1.5084 0.87585,2.28693 0.87585,0.72988 2.28693,0.72988 z m 34.20672,-8.02861 q 0,3.30876 -0.92451,5.88765 -0.87584,2.57888 -2.57888,4.33058 -1.65438,1.75169 -4.03863,2.6762 -2.38425,0.9245 -5.40106,0.9245 -2.82218,0 -5.15777,-0.9245 -2.33559,-0.92451 -4.03863,-2.6762 -1.70304,-1.7517 -2.6762,-4.33058 -0.97317,-2.57889 -0.97317,-5.88765 0,-4.42789 1.55707,-7.49336 1.55706,-3.06547 4.47655,-4.62253 2.91949,-1.60572 6.95812,-1.60572 3.74668,0 6.61752,1.60572 2.87083,1.55706 4.52521,4.62253 1.65438,3.06547 1.65438,7.49336 z m -18.29548,0 q 0,2.57889 0.53524,4.4279 0.5839,1.84901 1.75169,2.82218 1.21646,0.97316 3.16278,0.97316 1.89767,0 3.06547,-0.97316 1.21646,-0.97317 1.7517,-2.82218 0.53524,-1.84901 0.53524,-4.4279 0,-2.62754 -0.5839,-4.42789 -0.53524,-1.80036 -1.70304,-2.72486 -1.1678,-0.97317 -3.11412,-0.97317 -2.82218,0 -4.13595,2.09231 -1.26511,2.0923 -1.26511,6.03361 z m 38.8779,-13.72161 q 0.72987,0 1.55706,0.0973 0.87585,0.0487 1.36243,0.19463 l -0.72987,6.86081 q -0.53524,-0.0973 -1.26511,-0.19464 -0.72988,-0.0973 -1.7517,-0.0973 -1.11914,0 -2.28693,0.34061 -1.11914,0.3406 -2.09231,1.11913 -0.97316,0.77854 -1.55706,2.04365 -0.5839,1.26511 -0.5839,3.21144 v 13.47832 h -7.34739 v -26.56738 h 5.5957 l 1.07048,4.47656 h 0.3406 q 0.77854,-1.41109 1.94633,-2.53023 1.1678,-1.11914 2.62755,-1.75169 1.45974,-0.68122 3.11412,-0.68122 z"
         id="text2-8-2-9"
         transform="scale(1.0538855,0.94886969)"
         aria-label="AmbiCreator" /></g></g></svg>
